<?xml version="1.0" encoding="UTF-8" standalone="no"?>
<svg width="86px" height="24px" viewBox="0 0 43 12" version="1.1" xmlns="http://www.w3.org/2000/svg" xmlns:xlink="http://www.w3.org/1999/xlink" xmlns:sketch="http://www.bohemiancoding.com/sketch/ns">
    <g id="Page-1" stroke="none" stroke-width="1" fill="none" fill-rule="evenodd" sketch:type="MSPage">
        <path d="M5.156,4.728 L0.548,1.872 L0.056,2.628 L4.304,5.244 L0.056,7.86 L0.596,8.604 L5.156,5.748 L5.156,4.728 Z M15.608,0.012 L14.612,0.132 L14.612,9 L15.488,9 L15.56,8.34 C15.98,8.892 16.544,9.132 17.276,9.132 C18.908,9.132 19.784,7.752 19.784,5.832 C19.784,3.852 19.1,2.544 17.408,2.544 C16.688,2.544 16.064,2.892 15.608,3.504 L15.608,0.012 Z M17.048,8.328 C16.46,8.328 15.944,8.016 15.608,7.512 L15.608,4.368 C15.944,3.864 16.484,3.348 17.192,3.348 C18.176,3.348 18.692,4.176 18.692,5.832 C18.692,7.524 18.104,8.328 17.048,8.328 L17.048,8.328 Z M21.728,9 L25.976,9 L25.976,8.208 L24.2,8.208 L24.2,5.22 C24.416,4.344 25.076,3.516 25.928,3.516 C26.192,3.516 26.384,3.552 26.66,3.624 L26.84,2.64 C26.54,2.568 26.324,2.544 26.012,2.544 C25.256,2.544 24.56,3 24.188,3.9 L24.068,2.688 L21.728,2.688 L21.728,3.468 L23.204,3.468 L23.204,8.208 L21.728,8.208 L21.728,9 Z M30.008,2.688 L29.012,2.688 L29.012,7.284 C29.012,8.448 29.612,9.132 30.836,9.132 C31.568,9.132 32.36,8.784 32.852,8.148 L32.936,9 L33.788,9 L33.788,2.688 L32.792,2.688 L32.792,7.332 C32.456,7.872 31.772,8.34 31.076,8.34 C30.344,8.34 30.008,7.992 30.008,7.164 L30.008,2.688 Z M39.032,2.544 C38.264,2.544 37.604,2.916 37.136,3.564 L37.052,2.688 L36.212,2.688 L36.212,11.544 L37.208,11.424 L37.208,8.412 C37.628,8.892 38.192,9.132 38.876,9.132 C40.52,9.132 41.312,7.752 41.312,5.832 C41.312,3.852 40.712,2.544 39.032,2.544 L39.032,2.544 Z M38.792,3.348 C39.788,3.348 40.244,4.176 40.244,5.832 C40.244,7.524 39.716,8.304 38.66,8.304 C38.06,8.304 37.532,8.004 37.208,7.512 L37.208,4.368 C37.544,3.864 38.084,3.348 38.792,3.348 L38.792,3.348 Z" id="&gt;-brup" fill="#ffffff" sketch:type="MSShapeGroup"></path>
    </g>
</svg>
