<?xml version="1.0" encoding="utf-8"?>
<!-- Generator: Adobe Illustrator 16.0.4, SVG Export Plug-In . SVG Version: 6.00 Build 0)  -->
<!DOCTYPE svg PUBLIC "-//W3C//DTD SVG 1.1//EN" "http://www.w3.org/Graphics/SVG/1.1/DTD/svg11.dtd">
<svg version="1.1" id="Layer_1" xmlns:sketch="http://www.bohemiancoding.com/sketch/ns"
	 xmlns="http://www.w3.org/2000/svg" xmlns:xlink="http://www.w3.org/1999/xlink" x="0px" y="0px" width="73px" height="24px"
	 viewBox="0 0 73 24" enable-background="new 0 0 73 24" xml:space="preserve">
<g id="Page-1" sketch:type="MSPage">
	<path id="_x3E_-brup" sketch:type="MSShapeGroup" fill="#FFFFFF" d="M10.312,9.456L1.096,3.744L0.112,5.256l8.496,5.232
		L0.112,15.72l1.08,1.488l9.12-5.712V9.456z M21.216,0.024l-1.992,0.24V18h1.752l0.144-1.32c0.84,1.104,1.968,1.584,3.432,1.584
		c3.264,0,5.016-2.76,5.016-6.6c0-3.96-1.368-6.576-4.752-6.576c-1.44,0-2.688,0.696-3.6,1.92V0.024z M24.096,16.656
		c-1.176,0-2.208-0.624-2.88-1.633V8.736c0.672-1.008,1.752-2.04,3.168-2.04c1.968,0,3,1.656,3,4.968
		C27.384,15.048,26.208,16.656,24.096,16.656L24.096,16.656z M33.456,18h8.496v-1.584H38.4V10.44
		c0.432-1.752,1.752-3.408,3.455-3.408c0.528,0,0.912,0.072,1.465,0.216L43.68,5.28c-0.6-0.145-1.031-0.192-1.656-0.192
		C40.512,5.088,39.12,6,38.376,7.8l-0.239-2.424h-4.681v1.56h2.952v9.48h-2.952V18z M50.016,5.376h-1.992v9.192
		c0,2.328,1.201,3.695,3.648,3.695c1.465,0,3.049-0.695,4.032-1.968L55.872,18h1.704V5.376h-1.992v9.288
		c-0.672,1.08-2.04,2.016-3.432,2.016c-1.465,0-2.137-0.695-2.137-2.352V5.376z M68.064,5.088c-1.537,0-2.856,0.744-3.793,2.04
		l-0.168-1.752h-1.68v17.712l1.992-0.24v-6.023c0.84,0.96,1.968,1.439,3.336,1.439c3.288,0,4.872-2.76,4.872-6.6
		C73,7.704,71.424,5.088,68.064,5.088L68.064,5.088z M67.584,6.696c1.992,0,2.904,1.656,2.904,4.968
		c0,3.384-1.057,4.943-3.168,4.943c-1.2,0-2.256-0.6-2.904-1.584V8.736C65.088,7.728,66.168,6.696,67.584,6.696L67.584,6.696z"/>
</g>
</svg>
